M48
; DRILL file {KiCad (6.0.11)} date Thu Feb 16 17:22:55 2023
; FORMAT={-:-/ absolute / inch / decimal}
; #@! TF.CreationDate,2023-02-16T17:22:55+01:00
; #@! TF.GenerationSoftware,Kicad,Pcbnew,(6.0.11)
; #@! TF.FileFunction,Plated,1,2,PTH
FMAT,2
INCH
; #@! TA.AperFunction,Plated,PTH,ViaDrill
T1C0.0236
; #@! TA.AperFunction,Plated,PTH,ComponentDrill
T2C0.0394
; #@! TA.AperFunction,Plated,PTH,ComponentDrill
T3C0.1260
%
G90
G05
T1
X4.3307Y-2.5591
X4.3307Y-2.7559
X4.3307Y-3.1496
X4.3307Y-3.3465
X4.3307Y-3.5433
X4.5276Y-2.1654
X4.5276Y-2.3622
X4.5276Y-2.5591
X4.5276Y-2.7559
X4.5276Y-2.9528
X4.5276Y-3.3465
X4.5276Y-3.5433
X4.6654Y-3.1102
X4.7244Y-2.6299
X4.7244Y-3.3465
X4.7244Y-3.5433
X4.8425Y-2.2244
X4.8819Y-2.6378
X4.9213Y-3.3465
X4.9213Y-3.5433
X4.9567Y-2.8661
X5.0Y-3.2283
X5.0197Y-3.1299
X5.1181Y-2.3622
X5.1181Y-2.4803
X5.1575Y-2.9134
X5.2323Y-2.9291
X5.2362Y-3.0039
X5.2559Y-2.3622
X5.2756Y-3.2087
X5.315Y-2.6772
X5.3346Y-3.2677
X5.374Y-3.1299
X5.3898Y-2.7638
X5.3937Y-2.4803
X5.4508Y-3.498
X5.4528Y-2.7835
X5.4724Y-2.9528
X5.5118Y-2.1654
X5.5118Y-2.3622
X5.5118Y-2.7165
X5.5197Y-2.6378
X5.563Y-2.7835
X5.5906Y-2.9528
X5.6063Y-3.3189
X5.7087Y-2.1654
X5.7087Y-3.1496
X5.7087Y-3.5433
X5.9055Y-2.1654
X5.9055Y-2.7559
X5.9055Y-2.9528
X5.9055Y-3.3465
X5.9055Y-3.5433
X5.9055Y-3.7402
X6.1024Y-2.4016
X6.1024Y-2.5591
X6.1024Y-2.7559
X6.1024Y-3.3465
T2
X4.2126Y-2.8937
X4.2126Y-2.9921
X5.1575Y-2.1654
X5.2559Y-2.1654
X6.1811Y-2.8937
X6.1811Y-2.9921
T3
X4.2126Y-2.1654
X4.2126Y-3.7402
X6.1811Y-2.1654
X6.1811Y-3.7402
T0
M30
