%TF.GenerationSoftware,KiCad,Pcbnew,(6.0.11)*%
%TF.CreationDate,2023-02-16T17:23:01+01:00*%
%TF.ProjectId,microProc,6d696372-6f50-4726-9f63-2e6b69636164,rev?*%
%TF.SameCoordinates,Original*%
%TF.FileFunction,Paste,Top*%
%TF.FilePolarity,Positive*%
%FSLAX46Y46*%
G04 Gerber Fmt 4.6, Leading zero omitted, Abs format (unit mm)*
G04 Created by KiCad (PCBNEW (6.0.11)) date 2023-02-16 17:23:01*
%MOMM*%
%LPD*%
G01*
G04 APERTURE LIST*
G04 Aperture macros list*
%AMRoundRect*
0 Rectangle with rounded corners*
0 $1 Rounding radius*
0 $2 $3 $4 $5 $6 $7 $8 $9 X,Y pos of 4 corners*
0 Add a 4 corners polygon primitive as box body*
4,1,4,$2,$3,$4,$5,$6,$7,$8,$9,$2,$3,0*
0 Add four circle primitives for the rounded corners*
1,1,$1+$1,$2,$3*
1,1,$1+$1,$4,$5*
1,1,$1+$1,$6,$7*
1,1,$1+$1,$8,$9*
0 Add four rect primitives between the rounded corners*
20,1,$1+$1,$2,$3,$4,$5,0*
20,1,$1+$1,$4,$5,$6,$7,0*
20,1,$1+$1,$6,$7,$8,$9,0*
20,1,$1+$1,$8,$9,$2,$3,0*%
G04 Aperture macros list end*
%ADD10RoundRect,0.150000X0.825000X0.150000X-0.825000X0.150000X-0.825000X-0.150000X0.825000X-0.150000X0*%
%ADD11RoundRect,0.150000X0.512500X0.150000X-0.512500X0.150000X-0.512500X-0.150000X0.512500X-0.150000X0*%
%ADD12RoundRect,0.125000X-0.625000X-0.125000X0.625000X-0.125000X0.625000X0.125000X-0.625000X0.125000X0*%
%ADD13RoundRect,0.125000X-0.125000X-0.625000X0.125000X-0.625000X0.125000X0.625000X-0.125000X0.625000X0*%
%ADD14RoundRect,0.250000X0.450000X-0.350000X0.450000X0.350000X-0.450000X0.350000X-0.450000X-0.350000X0*%
%ADD15RoundRect,0.250000X-0.350000X-0.450000X0.350000X-0.450000X0.350000X0.450000X-0.350000X0.450000X0*%
%ADD16RoundRect,0.250000X0.350000X-0.275000X0.350000X0.275000X-0.350000X0.275000X-0.350000X-0.275000X0*%
%ADD17R,0.740000X2.400000*%
%ADD18RoundRect,0.237500X0.287500X0.237500X-0.287500X0.237500X-0.287500X-0.237500X0.287500X-0.237500X0*%
%ADD19RoundRect,0.250000X-0.475000X0.337500X-0.475000X-0.337500X0.475000X-0.337500X0.475000X0.337500X0*%
%ADD20RoundRect,0.250000X-0.337500X-0.475000X0.337500X-0.475000X0.337500X0.475000X-0.337500X0.475000X0*%
%ADD21RoundRect,0.250000X0.337500X0.475000X-0.337500X0.475000X-0.337500X-0.475000X0.337500X-0.475000X0*%
%ADD22RoundRect,0.250000X0.475000X-0.337500X0.475000X0.337500X-0.475000X0.337500X-0.475000X-0.337500X0*%
G04 APERTURE END LIST*
D10*
%TO.C,U3*%
X132975000Y-88105000D03*
X132975000Y-86835000D03*
X132975000Y-85565000D03*
X132975000Y-84295000D03*
X128025000Y-84295000D03*
X128025000Y-85565000D03*
X128025000Y-86835000D03*
X128025000Y-88105000D03*
%TD*%
D11*
%TO.C,U2*%
X121137500Y-55950000D03*
X121137500Y-55000000D03*
X121137500Y-54050000D03*
X118862500Y-54050000D03*
X118862500Y-55950000D03*
%TD*%
D12*
%TO.C,U1*%
X127825000Y-72200000D03*
X127825000Y-73000000D03*
X127825000Y-73800000D03*
X127825000Y-74600000D03*
X127825000Y-75400000D03*
X127825000Y-76200000D03*
X127825000Y-77000000D03*
X127825000Y-77800000D03*
D13*
X129200000Y-79175000D03*
X130000000Y-79175000D03*
X130800000Y-79175000D03*
X131600000Y-79175000D03*
X132400000Y-79175000D03*
X133200000Y-79175000D03*
X134000000Y-79175000D03*
X134800000Y-79175000D03*
D12*
X136175000Y-77800000D03*
X136175000Y-77000000D03*
X136175000Y-76200000D03*
X136175000Y-75400000D03*
X136175000Y-74600000D03*
X136175000Y-73800000D03*
X136175000Y-73000000D03*
X136175000Y-72200000D03*
D13*
X134800000Y-70825000D03*
X134000000Y-70825000D03*
X133200000Y-70825000D03*
X132400000Y-70825000D03*
X131600000Y-70825000D03*
X130800000Y-70825000D03*
X130000000Y-70825000D03*
X129200000Y-70825000D03*
%TD*%
D14*
%TO.C,R3*%
X125265000Y-63000000D03*
X125265000Y-61000000D03*
%TD*%
D15*
%TO.C,R2*%
X130735000Y-66735000D03*
X132735000Y-66735000D03*
%TD*%
%TO.C,R1*%
X145000000Y-74000000D03*
X147000000Y-74000000D03*
%TD*%
D16*
%TO.C,L1*%
X121000000Y-71850000D03*
X121000000Y-74150000D03*
%TD*%
D17*
%TO.C,J4*%
X142190000Y-64900000D03*
X142190000Y-61000000D03*
X143460000Y-64900000D03*
X143460000Y-61000000D03*
X144730000Y-64900000D03*
X144730000Y-61000000D03*
X146000000Y-64900000D03*
X146000000Y-61000000D03*
X147270000Y-64900000D03*
X147270000Y-61000000D03*
X148540000Y-64900000D03*
X148540000Y-61000000D03*
X149810000Y-64900000D03*
X149810000Y-61000000D03*
%TD*%
D18*
%TO.C,D2*%
X121000000Y-63000000D03*
X119250000Y-63000000D03*
%TD*%
%TO.C,D1*%
X144875000Y-77000000D03*
X143125000Y-77000000D03*
%TD*%
D19*
%TO.C,C10*%
X140000000Y-85162500D03*
X140000000Y-87237500D03*
%TD*%
%TO.C,C9*%
X137205000Y-87237500D03*
X137205000Y-85162500D03*
%TD*%
D20*
%TO.C,C8*%
X118821248Y-59735000D03*
X120896248Y-59735000D03*
%TD*%
D21*
%TO.C,C7*%
X126302500Y-54962500D03*
X124227500Y-54962500D03*
%TD*%
D19*
%TO.C,C6*%
X121000000Y-79037500D03*
X121000000Y-76962500D03*
%TD*%
%TO.C,C5*%
X124000000Y-79037500D03*
X124000000Y-76962500D03*
%TD*%
D22*
%TO.C,C4*%
X124000000Y-74298752D03*
X124000000Y-72223752D03*
%TD*%
%TO.C,C3*%
X127000000Y-67962500D03*
X127000000Y-70037500D03*
%TD*%
D19*
%TO.C,C2*%
X139500000Y-81637500D03*
X139500000Y-79562500D03*
%TD*%
%TO.C,C1*%
X142500000Y-81637500D03*
X142500000Y-79562500D03*
%TD*%
M02*
