%TF.GenerationSoftware,KiCad,Pcbnew,(6.0.11)*%
%TF.CreationDate,2023-02-16T16:39:03+01:00*%
%TF.ProjectId,microProc,6d696372-6f50-4726-9f63-2e6b69636164,rev?*%
%TF.SameCoordinates,Original*%
%TF.FileFunction,Copper,L2,Bot*%
%TF.FilePolarity,Positive*%
%FSLAX46Y46*%
G04 Gerber Fmt 4.6, Leading zero omitted, Abs format (unit mm)*
G04 Created by KiCad (PCBNEW (6.0.11)) date 2023-02-16 16:39:03*
%MOMM*%
%LPD*%
G01*
G04 APERTURE LIST*
G04 Aperture macros list*
%AMRoundRect*
0 Rectangle with rounded corners*
0 $1 Rounding radius*
0 $2 $3 $4 $5 $6 $7 $8 $9 X,Y pos of 4 corners*
0 Add a 4 corners polygon primitive as box body*
4,1,4,$2,$3,$4,$5,$6,$7,$8,$9,$2,$3,0*
0 Add four circle primitives for the rounded corners*
1,1,$1+$1,$2,$3*
1,1,$1+$1,$4,$5*
1,1,$1+$1,$6,$7*
1,1,$1+$1,$8,$9*
0 Add four rect primitives between the rounded corners*
20,1,$1+$1,$2,$3,$4,$5,0*
20,1,$1+$1,$4,$5,$6,$7,0*
20,1,$1+$1,$6,$7,$8,$9,0*
20,1,$1+$1,$8,$9,$2,$3,0*%
G04 Aperture macros list end*
%TA.AperFunction,ComponentPad*%
%ADD10C,6.400000*%
%TD*%
%TA.AperFunction,ComponentPad*%
%ADD11RoundRect,0.250000X0.750000X-0.600000X0.750000X0.600000X-0.750000X0.600000X-0.750000X-0.600000X0*%
%TD*%
%TA.AperFunction,ComponentPad*%
%ADD12O,2.000000X1.700000*%
%TD*%
%TA.AperFunction,ComponentPad*%
%ADD13RoundRect,0.250000X-0.600000X-0.750000X0.600000X-0.750000X0.600000X0.750000X-0.600000X0.750000X0*%
%TD*%
%TA.AperFunction,ComponentPad*%
%ADD14O,1.700000X2.000000*%
%TD*%
%TA.AperFunction,ViaPad*%
%ADD15C,1.200000*%
%TD*%
%TA.AperFunction,Conductor*%
%ADD16C,0.300000*%
%TD*%
G04 APERTURE END LIST*
D10*
%TO.P,H4,1,1*%
%TO.N,GND*%
X107000000Y-95000000D03*
%TD*%
%TO.P,H3,1,1*%
%TO.N,GND*%
X157000000Y-95000000D03*
%TD*%
%TO.P,H2,1,1*%
%TO.N,GND*%
X157000000Y-55000000D03*
%TD*%
%TO.P,H1,1,1*%
%TO.N,GND*%
X107000000Y-55000000D03*
%TD*%
D11*
%TO.P,J3,1,Pin_1*%
%TO.N,DAC_OUT*%
X157000000Y-76000000D03*
D12*
%TO.P,J3,2,Pin_2*%
%TO.N,GND*%
X157000000Y-73500000D03*
%TD*%
D11*
%TO.P,J2,1,Pin_1*%
%TO.N,ADC_IN1*%
X107000000Y-76000000D03*
D12*
%TO.P,J2,2,Pin_2*%
%TO.N,GND*%
X107000000Y-73500000D03*
%TD*%
D13*
%TO.P,J1,1,Pin_1*%
%TO.N,+5V*%
X131000000Y-55000000D03*
D14*
%TO.P,J1,2,Pin_2*%
%TO.N,GND*%
X133500000Y-55000000D03*
%TD*%
D15*
%TO.N,GND*%
X138450000Y-88850000D03*
X133500000Y-60000000D03*
X123000000Y-56500000D03*
X115000000Y-55000000D03*
X118500000Y-79000000D03*
X127500000Y-79500000D03*
X136500000Y-79500000D03*
X134000000Y-81500000D03*
X135500000Y-83000000D03*
X142000000Y-75000000D03*
X139000000Y-75000000D03*
X127000000Y-82000000D03*
X110000000Y-70000000D03*
X110000000Y-80000000D03*
X150000000Y-95000000D03*
X145000000Y-90000000D03*
X150000000Y-55000000D03*
X155000000Y-61000000D03*
X135000000Y-68000000D03*
X137000000Y-63000000D03*
X140000000Y-60000000D03*
X124000000Y-67000000D03*
X130000000Y-63000000D03*
X145000000Y-55000000D03*
X140000000Y-55000000D03*
X130000000Y-60000000D03*
X115000000Y-60000000D03*
X110000000Y-65000000D03*
X115000000Y-65000000D03*
X115000000Y-70000000D03*
X115000000Y-75000000D03*
X145000000Y-80000000D03*
X150000000Y-75000000D03*
X150000000Y-70000000D03*
X155000000Y-70000000D03*
X155000000Y-65000000D03*
X150000000Y-90000000D03*
X150000000Y-85000000D03*
X155000000Y-85000000D03*
X145000000Y-95000000D03*
X140000000Y-95000000D03*
X135000000Y-95000000D03*
X120000000Y-95000000D03*
X125000000Y-95000000D03*
X125000000Y-90000000D03*
X120000000Y-90000000D03*
X115000000Y-90000000D03*
X110000000Y-90000000D03*
X110000000Y-85000000D03*
X115000000Y-85000000D03*
X120000000Y-85000000D03*
X125000000Y-85000000D03*
X142400000Y-84300000D03*
X125900000Y-72800000D03*
X120000000Y-66800000D03*
X141300000Y-70700000D03*
X140200000Y-67000000D03*
%TO.N,NRST*%
X140000000Y-69000000D03*
X131000000Y-74000000D03*
%TO.N,USART2_RX*%
X132900000Y-74400000D03*
X136900000Y-70200000D03*
%TO.N,USART2_TX*%
X138500000Y-70700000D03*
X133000000Y-76300000D03*
%TD*%
D16*
%TO.N,NRST*%
X136000000Y-69000000D02*
X131000000Y-74000000D01*
X140000000Y-69000000D02*
X136000000Y-69000000D01*
%TO.N,USART2_RX*%
X132900000Y-74200000D02*
X136900000Y-70200000D01*
X132900000Y-74400000D02*
X132900000Y-74200000D01*
%TO.N,USART2_TX*%
X133000000Y-76300000D02*
X138500000Y-70800000D01*
X138500000Y-70800000D02*
X138500000Y-70700000D01*
%TD*%
%TA.AperFunction,Conductor*%
%TO.N,GND*%
G36*
X154993313Y-51416811D02*
G01*
X155074095Y-51470787D01*
X155128071Y-51551569D01*
X155147025Y-51646857D01*
X155128071Y-51742145D01*
X155074095Y-51822927D01*
X155033640Y-51855686D01*
X154822972Y-51992495D01*
X154812431Y-52000154D01*
X154581147Y-52187444D01*
X154567811Y-52203479D01*
X154573497Y-52214287D01*
X159779781Y-57420571D01*
X159797122Y-57432158D01*
X159807276Y-57425373D01*
X159999846Y-57187569D01*
X160007505Y-57177028D01*
X160041671Y-57124417D01*
X160109465Y-57054824D01*
X160198730Y-57016473D01*
X160295877Y-57015202D01*
X160386115Y-57051203D01*
X160455708Y-57118997D01*
X160494059Y-57208262D01*
X160499500Y-57260031D01*
X160499499Y-75004086D01*
X160499499Y-92739967D01*
X160480545Y-92835255D01*
X160426569Y-92916037D01*
X160345787Y-92970013D01*
X160250499Y-92988967D01*
X160155211Y-92970013D01*
X160074429Y-92916037D01*
X160041670Y-92875582D01*
X160007505Y-92822972D01*
X159999846Y-92812431D01*
X159812556Y-92581147D01*
X159796521Y-92567811D01*
X159785713Y-92573497D01*
X154579429Y-97779781D01*
X154567842Y-97797122D01*
X154574627Y-97807276D01*
X154812431Y-97999846D01*
X154822972Y-98007505D01*
X154913445Y-98066259D01*
X154983038Y-98134053D01*
X155021389Y-98223318D01*
X155022660Y-98320465D01*
X154986659Y-98410703D01*
X154918865Y-98480296D01*
X154829600Y-98518647D01*
X154777706Y-98524088D01*
X118770954Y-98505558D01*
X109258115Y-98500662D01*
X109162836Y-98481659D01*
X109082083Y-98427641D01*
X109028148Y-98346832D01*
X109009243Y-98251534D01*
X109028246Y-98156255D01*
X109082264Y-98075502D01*
X109122627Y-98042834D01*
X109177023Y-98007508D01*
X109187569Y-97999846D01*
X109418853Y-97812556D01*
X109432189Y-97796521D01*
X109426503Y-97785713D01*
X106640790Y-95000000D01*
X107364964Y-95000000D01*
X107376551Y-95017341D01*
X109779781Y-97420571D01*
X109797122Y-97432158D01*
X109807276Y-97425373D01*
X109999846Y-97187569D01*
X110007505Y-97177028D01*
X110212077Y-96862014D01*
X110218591Y-96850730D01*
X110389116Y-96516058D01*
X110394410Y-96504168D01*
X110529024Y-96153487D01*
X110533044Y-96141112D01*
X110630257Y-95778310D01*
X110632972Y-95765538D01*
X110691728Y-95394562D01*
X110693089Y-95381619D01*
X110712748Y-95006507D01*
X153287252Y-95006507D01*
X153306911Y-95381619D01*
X153308272Y-95394562D01*
X153367028Y-95765538D01*
X153369743Y-95778310D01*
X153466956Y-96141112D01*
X153470976Y-96153487D01*
X153605590Y-96504168D01*
X153610884Y-96516058D01*
X153781409Y-96850730D01*
X153787923Y-96862014D01*
X153992495Y-97177028D01*
X154000154Y-97187569D01*
X154187444Y-97418853D01*
X154203479Y-97432189D01*
X154214287Y-97426503D01*
X156623449Y-95017341D01*
X156635036Y-95000000D01*
X156623449Y-94982659D01*
X154220219Y-92579429D01*
X154202878Y-92567842D01*
X154192724Y-92574627D01*
X154000154Y-92812431D01*
X153992495Y-92822972D01*
X153787923Y-93137986D01*
X153781409Y-93149270D01*
X153610884Y-93483942D01*
X153605590Y-93495832D01*
X153470976Y-93846513D01*
X153466956Y-93858888D01*
X153369743Y-94221690D01*
X153367028Y-94234462D01*
X153308272Y-94605438D01*
X153306911Y-94618381D01*
X153287252Y-94993493D01*
X153287252Y-95006507D01*
X110712748Y-95006507D01*
X110712748Y-94993493D01*
X110693089Y-94618381D01*
X110691728Y-94605438D01*
X110632972Y-94234462D01*
X110630257Y-94221690D01*
X110533044Y-93858888D01*
X110529024Y-93846513D01*
X110394410Y-93495832D01*
X110389116Y-93483942D01*
X110218591Y-93149270D01*
X110212077Y-93137986D01*
X110007505Y-92822972D01*
X109999846Y-92812431D01*
X109812556Y-92581147D01*
X109796521Y-92567811D01*
X109785713Y-92573497D01*
X107376551Y-94982659D01*
X107364964Y-95000000D01*
X106640790Y-95000000D01*
X104220219Y-92579429D01*
X104202878Y-92567842D01*
X104192724Y-92574627D01*
X104000154Y-92812431D01*
X103992495Y-92822972D01*
X103958329Y-92875583D01*
X103890535Y-92945176D01*
X103801270Y-92983527D01*
X103704123Y-92984798D01*
X103613885Y-92948797D01*
X103544292Y-92881003D01*
X103505941Y-92791738D01*
X103500500Y-92739968D01*
X103500500Y-92203479D01*
X104567811Y-92203479D01*
X104573497Y-92214287D01*
X106982659Y-94623449D01*
X107000000Y-94635036D01*
X107017341Y-94623449D01*
X109420571Y-92220219D01*
X109431756Y-92203479D01*
X154567811Y-92203479D01*
X154573497Y-92214287D01*
X156982659Y-94623449D01*
X157000000Y-94635036D01*
X157017341Y-94623449D01*
X159420571Y-92220219D01*
X159432158Y-92202878D01*
X159425373Y-92192724D01*
X159187569Y-92000154D01*
X159177028Y-91992495D01*
X158862012Y-91787921D01*
X158850742Y-91781414D01*
X158516053Y-91610881D01*
X158504165Y-91605589D01*
X158153487Y-91470976D01*
X158141112Y-91466956D01*
X157778310Y-91369743D01*
X157765538Y-91367028D01*
X157394562Y-91308272D01*
X157381619Y-91306911D01*
X157006507Y-91287252D01*
X156993493Y-91287252D01*
X156618381Y-91306911D01*
X156605438Y-91308272D01*
X156234462Y-91367028D01*
X156221690Y-91369743D01*
X155858888Y-91466956D01*
X155846513Y-91470976D01*
X155495832Y-91605590D01*
X155483942Y-91610884D01*
X155149270Y-91781409D01*
X155137986Y-91787923D01*
X154822972Y-91992495D01*
X154812431Y-92000154D01*
X154581147Y-92187444D01*
X154567811Y-92203479D01*
X109431756Y-92203479D01*
X109432158Y-92202878D01*
X109425373Y-92192724D01*
X109187569Y-92000154D01*
X109177028Y-91992495D01*
X108862012Y-91787921D01*
X108850742Y-91781414D01*
X108516053Y-91610881D01*
X108504165Y-91605589D01*
X108153487Y-91470976D01*
X108141112Y-91466956D01*
X107778310Y-91369743D01*
X107765538Y-91367028D01*
X107394562Y-91308272D01*
X107381619Y-91306911D01*
X107006507Y-91287252D01*
X106993493Y-91287252D01*
X106618381Y-91306911D01*
X106605438Y-91308272D01*
X106234462Y-91367028D01*
X106221690Y-91369743D01*
X105858888Y-91466956D01*
X105846513Y-91470976D01*
X105495832Y-91605590D01*
X105483942Y-91610884D01*
X105149270Y-91781409D01*
X105137986Y-91787923D01*
X104822972Y-91992495D01*
X104812431Y-92000154D01*
X104581147Y-92187444D01*
X104567811Y-92203479D01*
X103500500Y-92203479D01*
X103500500Y-76649866D01*
X105499500Y-76649866D01*
X105500164Y-76656262D01*
X105500164Y-76656269D01*
X105508719Y-76738718D01*
X105510359Y-76754519D01*
X105514667Y-76767432D01*
X105514668Y-76767436D01*
X105560762Y-76905597D01*
X105565744Y-76920529D01*
X105573354Y-76932826D01*
X105573355Y-76932829D01*
X105620159Y-77008463D01*
X105657834Y-77069345D01*
X105668070Y-77079563D01*
X105753907Y-77165250D01*
X105781689Y-77192984D01*
X105794003Y-77200574D01*
X105794005Y-77200576D01*
X105908713Y-77271282D01*
X105930666Y-77284814D01*
X106005585Y-77309664D01*
X106083864Y-77335629D01*
X106083868Y-77335630D01*
X106096772Y-77339910D01*
X106110300Y-77341296D01*
X106193815Y-77349853D01*
X106193823Y-77349853D01*
X106200134Y-77350500D01*
X107799866Y-77350500D01*
X107806262Y-77349836D01*
X107806269Y-77349836D01*
X107890971Y-77341047D01*
X107890973Y-77341047D01*
X107904519Y-77339641D01*
X107917432Y-77335333D01*
X107917436Y-77335332D01*
X108056810Y-77288833D01*
X108070529Y-77284256D01*
X108082826Y-77276646D01*
X108082829Y-77276645D01*
X108200971Y-77203536D01*
X108219345Y-77192166D01*
X108342984Y-77068311D01*
X108434814Y-76919334D01*
X108461815Y-76837931D01*
X108485629Y-76766136D01*
X108485630Y-76766132D01*
X108489910Y-76753228D01*
X108500500Y-76649866D01*
X108500500Y-75350134D01*
X108489641Y-75245481D01*
X108481418Y-75220831D01*
X108438833Y-75093190D01*
X108434256Y-75079471D01*
X108416714Y-75051122D01*
X108349776Y-74942953D01*
X108342166Y-74930655D01*
X108218311Y-74807016D01*
X108205995Y-74799424D01*
X108194644Y-74790460D01*
X108195501Y-74789374D01*
X108135779Y-74733874D01*
X108095338Y-74645536D01*
X108091781Y-74548446D01*
X108125649Y-74457385D01*
X108156833Y-74418877D01*
X108156142Y-74418266D01*
X108177058Y-74394625D01*
X108302033Y-74226652D01*
X108313106Y-74208794D01*
X108407996Y-74022159D01*
X108415901Y-74002691D01*
X108425720Y-73971069D01*
X129895164Y-73971069D01*
X129908392Y-74172894D01*
X129958178Y-74368928D01*
X130042856Y-74552607D01*
X130049442Y-74561926D01*
X130152634Y-74707940D01*
X130159588Y-74717780D01*
X130304466Y-74858913D01*
X130313945Y-74865246D01*
X130313949Y-74865250D01*
X130411835Y-74930655D01*
X130472637Y-74971282D01*
X130483119Y-74975786D01*
X130483122Y-74975787D01*
X130570518Y-75013335D01*
X130658470Y-75051122D01*
X130762572Y-75074678D01*
X130844602Y-75093240D01*
X130844605Y-75093240D01*
X130855740Y-75095760D01*
X130956791Y-75099730D01*
X131046431Y-75103252D01*
X131046434Y-75103252D01*
X131057842Y-75103700D01*
X131258007Y-75074678D01*
X131353769Y-75042171D01*
X131438718Y-75013335D01*
X131438722Y-75013333D01*
X131449531Y-75009664D01*
X131459489Y-75004087D01*
X131459492Y-75004086D01*
X131616044Y-74916413D01*
X131626001Y-74910837D01*
X131626562Y-74911839D01*
X131705523Y-74877915D01*
X131802670Y-74876644D01*
X131892908Y-74912646D01*
X131960636Y-74977766D01*
X132052999Y-75108458D01*
X132053004Y-75108464D01*
X132059588Y-75117780D01*
X132165375Y-75220833D01*
X132220403Y-75300898D01*
X132240604Y-75395930D01*
X132222899Y-75491459D01*
X132187169Y-75553345D01*
X132080157Y-75689090D01*
X132080153Y-75689097D01*
X132073089Y-75698057D01*
X131978914Y-75877053D01*
X131918937Y-76070213D01*
X131917595Y-76081555D01*
X131898060Y-76246605D01*
X131895164Y-76271069D01*
X131908392Y-76472894D01*
X131911202Y-76483958D01*
X131954942Y-76656185D01*
X131958178Y-76668928D01*
X132042856Y-76852607D01*
X132049442Y-76861926D01*
X132098721Y-76931654D01*
X132159588Y-77017780D01*
X132167760Y-77025740D01*
X132167761Y-77025742D01*
X132223010Y-77079563D01*
X132304466Y-77158913D01*
X132313945Y-77165246D01*
X132313949Y-77165250D01*
X132382175Y-77210837D01*
X132472637Y-77271282D01*
X132483119Y-77275786D01*
X132483122Y-77275787D01*
X132570518Y-77313335D01*
X132658470Y-77351122D01*
X132762572Y-77374678D01*
X132844602Y-77393240D01*
X132844605Y-77393240D01*
X132855740Y-77395760D01*
X132956791Y-77399730D01*
X133046431Y-77403252D01*
X133046434Y-77403252D01*
X133057842Y-77403700D01*
X133258007Y-77374678D01*
X133373916Y-77335332D01*
X133438718Y-77313335D01*
X133438722Y-77313333D01*
X133449531Y-77309664D01*
X133459489Y-77304087D01*
X133459492Y-77304086D01*
X133616040Y-77216416D01*
X133616045Y-77216413D01*
X133626001Y-77210837D01*
X133634777Y-77203538D01*
X133634780Y-77203536D01*
X133772723Y-77088809D01*
X133781505Y-77081505D01*
X133910837Y-76926001D01*
X133916413Y-76916045D01*
X133916416Y-76916040D01*
X134004086Y-76759492D01*
X134004087Y-76759489D01*
X134009664Y-76749531D01*
X134033507Y-76679294D01*
X134043496Y-76649866D01*
X155499500Y-76649866D01*
X155500164Y-76656262D01*
X155500164Y-76656269D01*
X155508719Y-76738718D01*
X155510359Y-76754519D01*
X155514667Y-76767432D01*
X155514668Y-76767436D01*
X155560762Y-76905597D01*
X155565744Y-76920529D01*
X155573354Y-76932826D01*
X155573355Y-76932829D01*
X155620159Y-77008463D01*
X155657834Y-77069345D01*
X155668070Y-77079563D01*
X155753907Y-77165250D01*
X155781689Y-77192984D01*
X155794003Y-77200574D01*
X155794005Y-77200576D01*
X155908713Y-77271282D01*
X155930666Y-77284814D01*
X156005585Y-77309664D01*
X156083864Y-77335629D01*
X156083868Y-77335630D01*
X156096772Y-77339910D01*
X156110300Y-77341296D01*
X156193815Y-77349853D01*
X156193823Y-77349853D01*
X156200134Y-77350500D01*
X157799866Y-77350500D01*
X157806262Y-77349836D01*
X157806269Y-77349836D01*
X157890971Y-77341047D01*
X157890973Y-77341047D01*
X157904519Y-77339641D01*
X157917432Y-77335333D01*
X157917436Y-77335332D01*
X158056810Y-77288833D01*
X158070529Y-77284256D01*
X158082826Y-77276646D01*
X158082829Y-77276645D01*
X158200971Y-77203536D01*
X158219345Y-77192166D01*
X158342984Y-77068311D01*
X158434814Y-76919334D01*
X158461815Y-76837931D01*
X158485629Y-76766136D01*
X158485630Y-76766132D01*
X158489910Y-76753228D01*
X158500500Y-76649866D01*
X158500500Y-75350134D01*
X158489641Y-75245481D01*
X158481418Y-75220831D01*
X158438833Y-75093190D01*
X158434256Y-75079471D01*
X158416714Y-75051122D01*
X158349776Y-74942953D01*
X158342166Y-74930655D01*
X158218311Y-74807016D01*
X158205995Y-74799424D01*
X158194644Y-74790460D01*
X158195501Y-74789374D01*
X158135779Y-74733874D01*
X158095338Y-74645536D01*
X158091781Y-74548446D01*
X158125649Y-74457385D01*
X158156833Y-74418877D01*
X158156142Y-74418266D01*
X158177058Y-74394625D01*
X158302033Y-74226652D01*
X158313106Y-74208794D01*
X158407996Y-74022159D01*
X158415901Y-74002691D01*
X158477991Y-73802731D01*
X158482501Y-73782216D01*
X158483019Y-73778312D01*
X158481673Y-73757499D01*
X158471393Y-73754000D01*
X155540220Y-73754000D01*
X155519762Y-73758069D01*
X155518244Y-73765701D01*
X155518338Y-73766608D01*
X155542408Y-73881325D01*
X155548450Y-73901461D01*
X155625352Y-74096192D01*
X155634693Y-74115009D01*
X155743312Y-74294006D01*
X155755695Y-74310988D01*
X155853173Y-74423321D01*
X155901310Y-74507713D01*
X155913486Y-74604102D01*
X155887850Y-74697814D01*
X155828303Y-74774581D01*
X155796142Y-74798250D01*
X155792954Y-74800223D01*
X155780655Y-74807834D01*
X155657016Y-74931689D01*
X155649426Y-74944003D01*
X155649424Y-74944005D01*
X155583397Y-75051122D01*
X155565186Y-75080666D01*
X155557546Y-75103700D01*
X155514803Y-75232564D01*
X155510090Y-75246772D01*
X155499500Y-75350134D01*
X155499500Y-76649866D01*
X134043496Y-76649866D01*
X134071007Y-76568820D01*
X134074678Y-76558007D01*
X134103700Y-76357842D01*
X134105215Y-76300000D01*
X134100308Y-76246601D01*
X134110464Y-76149982D01*
X134156823Y-76064601D01*
X134172194Y-76047752D01*
X136998258Y-73221688D01*
X155516981Y-73221688D01*
X155518327Y-73242501D01*
X155528607Y-73246000D01*
X156721473Y-73246000D01*
X156741931Y-73241931D01*
X156746000Y-73221473D01*
X157254000Y-73221473D01*
X157258069Y-73241931D01*
X157278527Y-73246000D01*
X158459780Y-73246000D01*
X158480238Y-73241931D01*
X158481756Y-73234299D01*
X158481662Y-73233392D01*
X158457592Y-73118675D01*
X158451550Y-73098539D01*
X158374648Y-72903808D01*
X158365307Y-72884991D01*
X158256688Y-72705994D01*
X158244305Y-72689012D01*
X158107085Y-72530881D01*
X158092015Y-72516226D01*
X157930117Y-72383477D01*
X157912797Y-72371573D01*
X157730844Y-72268000D01*
X157711761Y-72259182D01*
X157514950Y-72187744D01*
X157494672Y-72182272D01*
X157286333Y-72144599D01*
X157273046Y-72143090D01*
X157258069Y-72146069D01*
X157254000Y-72166527D01*
X157254000Y-73221473D01*
X156746000Y-73221473D01*
X156746000Y-72170442D01*
X156741931Y-72149984D01*
X156728807Y-72147374D01*
X156630864Y-72155684D01*
X156610158Y-72159224D01*
X156407508Y-72211821D01*
X156387679Y-72218803D01*
X156196781Y-72304797D01*
X156178420Y-72315017D01*
X156004749Y-72431939D01*
X155988360Y-72445116D01*
X155836877Y-72589624D01*
X155822942Y-72605375D01*
X155697967Y-72773348D01*
X155686894Y-72791206D01*
X155592004Y-72977841D01*
X155584099Y-72997309D01*
X155522009Y-73197269D01*
X155517499Y-73217784D01*
X155516981Y-73221688D01*
X136998258Y-73221688D01*
X138344585Y-71875361D01*
X138425367Y-71821385D01*
X138520655Y-71802431D01*
X138530431Y-71802623D01*
X138546431Y-71803252D01*
X138546435Y-71803252D01*
X138557842Y-71803700D01*
X138758007Y-71774678D01*
X138853769Y-71742171D01*
X138938718Y-71713335D01*
X138938722Y-71713333D01*
X138949531Y-71709664D01*
X138959489Y-71704087D01*
X138959492Y-71704086D01*
X139116040Y-71616416D01*
X139116045Y-71616413D01*
X139126001Y-71610837D01*
X139134777Y-71603538D01*
X139134780Y-71603536D01*
X139272723Y-71488809D01*
X139281505Y-71481505D01*
X139410837Y-71326001D01*
X139416413Y-71316045D01*
X139416416Y-71316040D01*
X139504086Y-71159492D01*
X139504087Y-71159489D01*
X139509664Y-71149531D01*
X139574678Y-70958007D01*
X139603700Y-70757842D01*
X139605215Y-70700000D01*
X139586708Y-70498591D01*
X139560620Y-70406089D01*
X139552998Y-70309236D01*
X139583021Y-70216836D01*
X139646118Y-70142959D01*
X139732684Y-70098852D01*
X139829540Y-70091230D01*
X139833271Y-70091870D01*
X139833287Y-70091750D01*
X139844600Y-70093239D01*
X139855740Y-70095760D01*
X139956791Y-70099730D01*
X140046431Y-70103252D01*
X140046434Y-70103252D01*
X140057842Y-70103700D01*
X140258007Y-70074678D01*
X140353769Y-70042171D01*
X140438718Y-70013335D01*
X140438722Y-70013333D01*
X140449531Y-70009664D01*
X140459489Y-70004087D01*
X140459492Y-70004086D01*
X140616040Y-69916416D01*
X140616045Y-69916413D01*
X140626001Y-69910837D01*
X140634777Y-69903538D01*
X140634780Y-69903536D01*
X140772723Y-69788809D01*
X140781505Y-69781505D01*
X140834505Y-69717780D01*
X140903536Y-69634780D01*
X140903538Y-69634777D01*
X140910837Y-69626001D01*
X140916413Y-69616045D01*
X140916416Y-69616040D01*
X141004086Y-69459492D01*
X141004087Y-69459489D01*
X141009664Y-69449531D01*
X141074678Y-69258007D01*
X141103700Y-69057842D01*
X141105215Y-69000000D01*
X141086708Y-68798591D01*
X141031807Y-68603926D01*
X140942351Y-68422527D01*
X140821335Y-68260467D01*
X140672812Y-68123174D01*
X140657307Y-68113391D01*
X140511413Y-68021338D01*
X140511409Y-68021336D01*
X140501757Y-68015246D01*
X140313898Y-67940298D01*
X140115526Y-67900839D01*
X139991877Y-67899221D01*
X139924691Y-67898341D01*
X139924688Y-67898341D01*
X139913286Y-67898192D01*
X139902050Y-67900123D01*
X139902046Y-67900123D01*
X139725192Y-67930512D01*
X139725191Y-67930512D01*
X139713949Y-67932444D01*
X139524193Y-68002449D01*
X139350371Y-68105862D01*
X139198305Y-68239220D01*
X139191237Y-68248186D01*
X139191234Y-68248189D01*
X139186138Y-68254653D01*
X139112261Y-68317751D01*
X139019862Y-68347774D01*
X138990593Y-68349500D01*
X136076493Y-68349500D01*
X136070564Y-68349220D01*
X136061704Y-68347240D01*
X136024948Y-68348395D01*
X135993697Y-68349377D01*
X135985876Y-68349500D01*
X135959075Y-68349500D01*
X135951329Y-68350478D01*
X135947945Y-68350691D01*
X135940146Y-68351059D01*
X135920593Y-68351674D01*
X135897431Y-68352402D01*
X135882383Y-68356774D01*
X135875355Y-68357887D01*
X135859388Y-68361193D01*
X135852485Y-68362965D01*
X135836942Y-68364929D01*
X135799970Y-68379567D01*
X135777786Y-68387162D01*
X135766940Y-68390313D01*
X135739602Y-68398256D01*
X135726118Y-68406230D01*
X135719574Y-68409062D01*
X135704940Y-68416231D01*
X135698691Y-68419666D01*
X135684129Y-68425432D01*
X135671459Y-68434637D01*
X135671456Y-68434639D01*
X135651963Y-68448802D01*
X135632362Y-68461677D01*
X135598135Y-68481919D01*
X135587057Y-68492997D01*
X135581431Y-68497361D01*
X135569052Y-68507933D01*
X135563843Y-68512825D01*
X135551163Y-68522037D01*
X135541176Y-68534109D01*
X135541173Y-68534112D01*
X135525827Y-68552663D01*
X135510039Y-68570015D01*
X131252676Y-72827378D01*
X131171894Y-72881354D01*
X131073347Y-72900287D01*
X131048054Y-72899956D01*
X130924691Y-72898341D01*
X130924688Y-72898341D01*
X130913286Y-72898192D01*
X130902050Y-72900123D01*
X130902046Y-72900123D01*
X130725192Y-72930512D01*
X130725191Y-72930512D01*
X130713949Y-72932444D01*
X130524193Y-73002449D01*
X130350371Y-73105862D01*
X130341786Y-73113391D01*
X130218542Y-73221473D01*
X130198305Y-73239220D01*
X130191240Y-73248181D01*
X130191238Y-73248184D01*
X130151117Y-73299078D01*
X130073089Y-73398057D01*
X129978914Y-73577053D01*
X129975528Y-73587959D01*
X129922708Y-73758069D01*
X129918937Y-73770213D01*
X129895164Y-73971069D01*
X108425720Y-73971069D01*
X108477991Y-73802731D01*
X108482501Y-73782216D01*
X108483019Y-73778312D01*
X108481673Y-73757499D01*
X108471393Y-73754000D01*
X105540220Y-73754000D01*
X105519762Y-73758069D01*
X105518244Y-73765701D01*
X105518338Y-73766608D01*
X105542408Y-73881325D01*
X105548450Y-73901461D01*
X105625352Y-74096192D01*
X105634693Y-74115009D01*
X105743312Y-74294006D01*
X105755695Y-74310988D01*
X105853173Y-74423321D01*
X105901310Y-74507713D01*
X105913486Y-74604102D01*
X105887850Y-74697814D01*
X105828303Y-74774581D01*
X105796142Y-74798250D01*
X105792954Y-74800223D01*
X105780655Y-74807834D01*
X105657016Y-74931689D01*
X105649426Y-74944003D01*
X105649424Y-74944005D01*
X105583397Y-75051122D01*
X105565186Y-75080666D01*
X105557546Y-75103700D01*
X105514803Y-75232564D01*
X105510090Y-75246772D01*
X105499500Y-75350134D01*
X105499500Y-76649866D01*
X103500500Y-76649866D01*
X103500500Y-73221688D01*
X105516981Y-73221688D01*
X105518327Y-73242501D01*
X105528607Y-73246000D01*
X106721473Y-73246000D01*
X106741931Y-73241931D01*
X106746000Y-73221473D01*
X107254000Y-73221473D01*
X107258069Y-73241931D01*
X107278527Y-73246000D01*
X108459780Y-73246000D01*
X108480238Y-73241931D01*
X108481756Y-73234299D01*
X108481662Y-73233392D01*
X108457592Y-73118675D01*
X108451550Y-73098539D01*
X108374648Y-72903808D01*
X108365307Y-72884991D01*
X108256688Y-72705994D01*
X108244305Y-72689012D01*
X108107085Y-72530881D01*
X108092015Y-72516226D01*
X107930117Y-72383477D01*
X107912797Y-72371573D01*
X107730844Y-72268000D01*
X107711761Y-72259182D01*
X107514950Y-72187744D01*
X107494672Y-72182272D01*
X107286333Y-72144599D01*
X107273046Y-72143090D01*
X107258069Y-72146069D01*
X107254000Y-72166527D01*
X107254000Y-73221473D01*
X106746000Y-73221473D01*
X106746000Y-72170442D01*
X106741931Y-72149984D01*
X106728807Y-72147374D01*
X106630864Y-72155684D01*
X106610158Y-72159224D01*
X106407508Y-72211821D01*
X106387679Y-72218803D01*
X106196781Y-72304797D01*
X106178420Y-72315017D01*
X106004749Y-72431939D01*
X105988360Y-72445116D01*
X105836877Y-72589624D01*
X105822942Y-72605375D01*
X105697967Y-72773348D01*
X105686894Y-72791206D01*
X105592004Y-72977841D01*
X105584099Y-72997309D01*
X105522009Y-73197269D01*
X105517499Y-73217784D01*
X105516981Y-73221688D01*
X103500500Y-73221688D01*
X103500500Y-57797122D01*
X104567842Y-57797122D01*
X104574627Y-57807276D01*
X104812431Y-57999846D01*
X104822972Y-58007505D01*
X105137988Y-58212079D01*
X105149258Y-58218586D01*
X105483947Y-58389119D01*
X105495835Y-58394411D01*
X105846513Y-58529024D01*
X105858888Y-58533044D01*
X106221690Y-58630257D01*
X106234462Y-58632972D01*
X106605438Y-58691728D01*
X106618381Y-58693089D01*
X106993493Y-58712748D01*
X107006507Y-58712748D01*
X107381619Y-58693089D01*
X107394562Y-58691728D01*
X107765538Y-58632972D01*
X107778310Y-58630257D01*
X108141112Y-58533044D01*
X108153487Y-58529024D01*
X108504165Y-58394411D01*
X108516053Y-58389119D01*
X108850742Y-58218586D01*
X108862012Y-58212079D01*
X109177028Y-58007505D01*
X109187569Y-57999846D01*
X109418853Y-57812556D01*
X109431689Y-57797122D01*
X154567842Y-57797122D01*
X154574627Y-57807276D01*
X154812431Y-57999846D01*
X154822972Y-58007505D01*
X155137988Y-58212079D01*
X155149258Y-58218586D01*
X155483947Y-58389119D01*
X155495835Y-58394411D01*
X155846513Y-58529024D01*
X155858888Y-58533044D01*
X156221690Y-58630257D01*
X156234462Y-58632972D01*
X156605438Y-58691728D01*
X156618381Y-58693089D01*
X156993493Y-58712748D01*
X157006507Y-58712748D01*
X157381619Y-58693089D01*
X157394562Y-58691728D01*
X157765538Y-58632972D01*
X157778310Y-58630257D01*
X158141112Y-58533044D01*
X158153487Y-58529024D01*
X158504165Y-58394411D01*
X158516053Y-58389119D01*
X158850742Y-58218586D01*
X158862012Y-58212079D01*
X159177028Y-58007505D01*
X159187569Y-57999846D01*
X159418853Y-57812556D01*
X159432189Y-57796521D01*
X159426503Y-57785713D01*
X157017341Y-55376551D01*
X157000000Y-55364964D01*
X156982659Y-55376551D01*
X154579429Y-57779781D01*
X154567842Y-57797122D01*
X109431689Y-57797122D01*
X109432189Y-57796521D01*
X109426503Y-57785713D01*
X107017341Y-55376551D01*
X107000000Y-55364964D01*
X106982659Y-55376551D01*
X104579429Y-57779781D01*
X104567842Y-57797122D01*
X103500500Y-57797122D01*
X103500500Y-57260032D01*
X103519454Y-57164744D01*
X103573430Y-57083962D01*
X103654212Y-57029986D01*
X103749500Y-57011032D01*
X103844788Y-57029986D01*
X103925570Y-57083962D01*
X103958329Y-57124417D01*
X103992495Y-57177028D01*
X104000154Y-57187569D01*
X104187444Y-57418853D01*
X104203479Y-57432189D01*
X104214287Y-57426503D01*
X106640790Y-55000000D01*
X107364964Y-55000000D01*
X107376551Y-55017341D01*
X109779781Y-57420571D01*
X109797122Y-57432158D01*
X109807276Y-57425373D01*
X109999846Y-57187569D01*
X110007505Y-57177028D01*
X110212077Y-56862014D01*
X110218591Y-56850730D01*
X110389116Y-56516058D01*
X110394410Y-56504168D01*
X110529024Y-56153487D01*
X110533044Y-56141112D01*
X110624481Y-55799866D01*
X129649500Y-55799866D01*
X129660359Y-55904519D01*
X129715744Y-56070529D01*
X129723354Y-56082826D01*
X129723355Y-56082829D01*
X129749853Y-56125649D01*
X129807834Y-56219345D01*
X129931689Y-56342984D01*
X129944003Y-56350574D01*
X129944005Y-56350576D01*
X130037159Y-56407996D01*
X130080666Y-56434814D01*
X130149338Y-56457592D01*
X130233864Y-56485629D01*
X130233868Y-56485630D01*
X130246772Y-56489910D01*
X130260300Y-56491296D01*
X130343815Y-56499853D01*
X130343823Y-56499853D01*
X130350134Y-56500500D01*
X131649866Y-56500500D01*
X131656262Y-56499836D01*
X131656269Y-56499836D01*
X131740971Y-56491047D01*
X131740973Y-56491047D01*
X131754519Y-56489641D01*
X131767432Y-56485333D01*
X131767436Y-56485332D01*
X131906810Y-56438833D01*
X131920529Y-56434256D01*
X131932826Y-56426646D01*
X131932829Y-56426645D01*
X132016855Y-56374648D01*
X132069345Y-56342166D01*
X132192984Y-56218311D01*
X132200576Y-56205995D01*
X132209540Y-56194644D01*
X132210626Y-56195501D01*
X132266126Y-56135779D01*
X132354464Y-56095338D01*
X132451554Y-56091781D01*
X132542615Y-56125649D01*
X132581123Y-56156833D01*
X132581734Y-56156142D01*
X132605375Y-56177058D01*
X132773348Y-56302033D01*
X132791206Y-56313106D01*
X132977841Y-56407996D01*
X132997309Y-56415901D01*
X133197269Y-56477991D01*
X133217784Y-56482501D01*
X133221688Y-56483019D01*
X133242501Y-56481673D01*
X133246000Y-56471393D01*
X133246000Y-56459780D01*
X133754000Y-56459780D01*
X133758069Y-56480238D01*
X133765701Y-56481756D01*
X133766608Y-56481662D01*
X133881325Y-56457592D01*
X133901461Y-56451550D01*
X134096192Y-56374648D01*
X134115009Y-56365307D01*
X134294006Y-56256688D01*
X134310988Y-56244305D01*
X134469119Y-56107085D01*
X134483774Y-56092015D01*
X134616523Y-55930117D01*
X134628427Y-55912797D01*
X134732000Y-55730844D01*
X134740818Y-55711761D01*
X134812256Y-55514950D01*
X134817728Y-55494672D01*
X134855401Y-55286333D01*
X134856910Y-55273046D01*
X134853931Y-55258069D01*
X134833473Y-55254000D01*
X133778527Y-55254000D01*
X133758069Y-55258069D01*
X133754000Y-55278527D01*
X133754000Y-56459780D01*
X133246000Y-56459780D01*
X133246000Y-55006507D01*
X153287252Y-55006507D01*
X153306911Y-55381619D01*
X153308272Y-55394562D01*
X153367028Y-55765538D01*
X153369743Y-55778310D01*
X153466956Y-56141112D01*
X153470976Y-56153487D01*
X153605590Y-56504168D01*
X153610884Y-56516058D01*
X153781409Y-56850730D01*
X153787923Y-56862014D01*
X153992495Y-57177028D01*
X154000154Y-57187569D01*
X154187444Y-57418853D01*
X154203479Y-57432189D01*
X154214287Y-57426503D01*
X156623449Y-55017341D01*
X156635036Y-55000000D01*
X156623449Y-54982659D01*
X154220219Y-52579429D01*
X154202878Y-52567842D01*
X154192724Y-52574627D01*
X154000154Y-52812431D01*
X153992495Y-52822972D01*
X153787923Y-53137986D01*
X153781409Y-53149270D01*
X153610884Y-53483942D01*
X153605590Y-53495832D01*
X153470976Y-53846513D01*
X153466956Y-53858888D01*
X153369743Y-54221690D01*
X153367028Y-54234462D01*
X153308272Y-54605438D01*
X153306911Y-54618381D01*
X153287252Y-54993493D01*
X153287252Y-55006507D01*
X133246000Y-55006507D01*
X133246000Y-54721473D01*
X133754000Y-54721473D01*
X133758069Y-54741931D01*
X133778527Y-54746000D01*
X134829558Y-54746000D01*
X134850016Y-54741931D01*
X134852626Y-54728807D01*
X134844316Y-54630864D01*
X134840776Y-54610158D01*
X134788179Y-54407508D01*
X134781197Y-54387679D01*
X134695203Y-54196781D01*
X134684983Y-54178420D01*
X134568061Y-54004749D01*
X134554884Y-53988360D01*
X134410376Y-53836877D01*
X134394625Y-53822942D01*
X134226652Y-53697967D01*
X134208794Y-53686894D01*
X134022159Y-53592004D01*
X134002691Y-53584099D01*
X133802731Y-53522009D01*
X133782216Y-53517499D01*
X133778312Y-53516981D01*
X133757499Y-53518327D01*
X133754000Y-53528607D01*
X133754000Y-54721473D01*
X133246000Y-54721473D01*
X133246000Y-53540220D01*
X133241931Y-53519762D01*
X133234299Y-53518244D01*
X133233392Y-53518338D01*
X133118675Y-53542408D01*
X133098539Y-53548450D01*
X132903808Y-53625352D01*
X132884991Y-53634693D01*
X132705994Y-53743312D01*
X132689012Y-53755695D01*
X132576679Y-53853173D01*
X132492287Y-53901310D01*
X132395898Y-53913486D01*
X132302186Y-53887850D01*
X132225419Y-53828303D01*
X132201750Y-53796142D01*
X132199777Y-53792954D01*
X132199776Y-53792953D01*
X132192166Y-53780655D01*
X132068311Y-53657016D01*
X132055997Y-53649426D01*
X132055995Y-53649424D01*
X131931654Y-53572780D01*
X131931653Y-53572780D01*
X131919334Y-53565186D01*
X131809054Y-53528607D01*
X131766136Y-53514371D01*
X131766132Y-53514370D01*
X131753228Y-53510090D01*
X131736366Y-53508362D01*
X131656185Y-53500147D01*
X131656177Y-53500147D01*
X131649866Y-53499500D01*
X130350134Y-53499500D01*
X130343738Y-53500164D01*
X130343731Y-53500164D01*
X130259029Y-53508953D01*
X130259027Y-53508953D01*
X130245481Y-53510359D01*
X130232568Y-53514667D01*
X130232564Y-53514668D01*
X130094800Y-53560630D01*
X130079471Y-53565744D01*
X130067174Y-53573354D01*
X130067171Y-53573355D01*
X129990760Y-53620640D01*
X129930655Y-53657834D01*
X129807016Y-53781689D01*
X129799426Y-53794003D01*
X129799424Y-53794005D01*
X129778283Y-53828303D01*
X129715186Y-53930666D01*
X129660090Y-54096772D01*
X129658704Y-54110300D01*
X129651725Y-54178420D01*
X129649500Y-54200134D01*
X129649500Y-55799866D01*
X110624481Y-55799866D01*
X110630257Y-55778310D01*
X110632972Y-55765538D01*
X110691728Y-55394562D01*
X110693089Y-55381619D01*
X110712748Y-55006507D01*
X110712748Y-54993493D01*
X110693089Y-54618381D01*
X110691728Y-54605438D01*
X110632972Y-54234462D01*
X110630257Y-54221690D01*
X110533044Y-53858888D01*
X110529024Y-53846513D01*
X110394410Y-53495832D01*
X110389116Y-53483942D01*
X110218591Y-53149270D01*
X110212077Y-53137986D01*
X110007505Y-52822972D01*
X109999846Y-52812431D01*
X109812556Y-52581147D01*
X109796521Y-52567811D01*
X109785713Y-52573497D01*
X107376551Y-54982659D01*
X107364964Y-55000000D01*
X106640790Y-55000000D01*
X109420571Y-52220219D01*
X109432158Y-52202878D01*
X109425373Y-52192724D01*
X109187569Y-52000154D01*
X109177028Y-51992495D01*
X108966360Y-51855686D01*
X108896768Y-51787892D01*
X108858416Y-51698627D01*
X108857144Y-51601481D01*
X108893146Y-51511242D01*
X108960940Y-51441650D01*
X109050205Y-51403298D01*
X109101975Y-51397857D01*
X154898025Y-51397857D01*
X154993313Y-51416811D01*
G37*
%TD.AperFunction*%
%TD*%
M02*
