%TF.GenerationSoftware,KiCad,Pcbnew,(6.0.11)*%
%TF.CreationDate,2023-02-16T17:23:01+01:00*%
%TF.ProjectId,microProc,6d696372-6f50-4726-9f63-2e6b69636164,rev?*%
%TF.SameCoordinates,Original*%
%TF.FileFunction,Legend,Top*%
%TF.FilePolarity,Positive*%
%FSLAX46Y46*%
G04 Gerber Fmt 4.6, Leading zero omitted, Abs format (unit mm)*
G04 Created by KiCad (PCBNEW (6.0.11)) date 2023-02-16 17:23:01*
%MOMM*%
%LPD*%
G01*
G04 APERTURE LIST*
%ADD10C,0.150000*%
%ADD11C,0.120000*%
G04 APERTURE END LIST*
D10*
%TO.C,H4*%
X106238095Y-91252380D02*
X106238095Y-90252380D01*
X106238095Y-90728571D02*
X106809523Y-90728571D01*
X106809523Y-91252380D02*
X106809523Y-90252380D01*
X107714285Y-90585714D02*
X107714285Y-91252380D01*
X107476190Y-90204761D02*
X107238095Y-90919047D01*
X107857142Y-90919047D01*
%TO.C,H3*%
X156238095Y-91252380D02*
X156238095Y-90252380D01*
X156238095Y-90728571D02*
X156809523Y-90728571D01*
X156809523Y-91252380D02*
X156809523Y-90252380D01*
X157190476Y-90252380D02*
X157809523Y-90252380D01*
X157476190Y-90633333D01*
X157619047Y-90633333D01*
X157714285Y-90680952D01*
X157761904Y-90728571D01*
X157809523Y-90823809D01*
X157809523Y-91061904D01*
X157761904Y-91157142D01*
X157714285Y-91204761D01*
X157619047Y-91252380D01*
X157333333Y-91252380D01*
X157238095Y-91204761D01*
X157190476Y-91157142D01*
%TO.C,H2*%
X151988095Y-52852380D02*
X151988095Y-51852380D01*
X151988095Y-52328571D02*
X152559523Y-52328571D01*
X152559523Y-52852380D02*
X152559523Y-51852380D01*
X152988095Y-51947619D02*
X153035714Y-51900000D01*
X153130952Y-51852380D01*
X153369047Y-51852380D01*
X153464285Y-51900000D01*
X153511904Y-51947619D01*
X153559523Y-52042857D01*
X153559523Y-52138095D01*
X153511904Y-52280952D01*
X152940476Y-52852380D01*
X153559523Y-52852380D01*
%TO.C,H1*%
X111588095Y-55752380D02*
X111588095Y-54752380D01*
X111588095Y-55228571D02*
X112159523Y-55228571D01*
X112159523Y-55752380D02*
X112159523Y-54752380D01*
X113159523Y-55752380D02*
X112588095Y-55752380D01*
X112873809Y-55752380D02*
X112873809Y-54752380D01*
X112778571Y-54895238D01*
X112683333Y-54990476D01*
X112588095Y-55038095D01*
%TO.C,U3*%
X133552380Y-91861904D02*
X134361904Y-91861904D01*
X134457142Y-91814285D01*
X134504761Y-91766666D01*
X134552380Y-91671428D01*
X134552380Y-91480952D01*
X134504761Y-91385714D01*
X134457142Y-91338095D01*
X134361904Y-91290476D01*
X133552380Y-91290476D01*
X133552380Y-90909523D02*
X133552380Y-90290476D01*
X133933333Y-90623809D01*
X133933333Y-90480952D01*
X133980952Y-90385714D01*
X134028571Y-90338095D01*
X134123809Y-90290476D01*
X134361904Y-90290476D01*
X134457142Y-90338095D01*
X134504761Y-90385714D01*
X134552380Y-90480952D01*
X134552380Y-90766666D01*
X134504761Y-90861904D01*
X134457142Y-90909523D01*
%TO.C,U2*%
X119238095Y-56852380D02*
X119238095Y-57661904D01*
X119285714Y-57757142D01*
X119333333Y-57804761D01*
X119428571Y-57852380D01*
X119619047Y-57852380D01*
X119714285Y-57804761D01*
X119761904Y-57757142D01*
X119809523Y-57661904D01*
X119809523Y-56852380D01*
X120238095Y-56947619D02*
X120285714Y-56900000D01*
X120380952Y-56852380D01*
X120619047Y-56852380D01*
X120714285Y-56900000D01*
X120761904Y-56947619D01*
X120809523Y-57042857D01*
X120809523Y-57138095D01*
X120761904Y-57280952D01*
X120190476Y-57852380D01*
X120809523Y-57852380D01*
%TO.C,U1*%
X131238095Y-68572380D02*
X131238095Y-69381904D01*
X131285714Y-69477142D01*
X131333333Y-69524761D01*
X131428571Y-69572380D01*
X131619047Y-69572380D01*
X131714285Y-69524761D01*
X131761904Y-69477142D01*
X131809523Y-69381904D01*
X131809523Y-68572380D01*
X132809523Y-69572380D02*
X132238095Y-69572380D01*
X132523809Y-69572380D02*
X132523809Y-68572380D01*
X132428571Y-68715238D01*
X132333333Y-68810476D01*
X132238095Y-68858095D01*
%TO.C,R3*%
X124067380Y-62166666D02*
X123591190Y-62500000D01*
X124067380Y-62738095D02*
X123067380Y-62738095D01*
X123067380Y-62357142D01*
X123115000Y-62261904D01*
X123162619Y-62214285D01*
X123257857Y-62166666D01*
X123400714Y-62166666D01*
X123495952Y-62214285D01*
X123543571Y-62261904D01*
X123591190Y-62357142D01*
X123591190Y-62738095D01*
X123067380Y-61833333D02*
X123067380Y-61214285D01*
X123448333Y-61547619D01*
X123448333Y-61404761D01*
X123495952Y-61309523D01*
X123543571Y-61261904D01*
X123638809Y-61214285D01*
X123876904Y-61214285D01*
X123972142Y-61261904D01*
X124019761Y-61309523D01*
X124067380Y-61404761D01*
X124067380Y-61690476D01*
X124019761Y-61785714D01*
X123972142Y-61833333D01*
%TO.C,R2*%
X134568333Y-67187380D02*
X134235000Y-66711190D01*
X133996904Y-67187380D02*
X133996904Y-66187380D01*
X134377857Y-66187380D01*
X134473095Y-66235000D01*
X134520714Y-66282619D01*
X134568333Y-66377857D01*
X134568333Y-66520714D01*
X134520714Y-66615952D01*
X134473095Y-66663571D01*
X134377857Y-66711190D01*
X133996904Y-66711190D01*
X134949285Y-66282619D02*
X134996904Y-66235000D01*
X135092142Y-66187380D01*
X135330238Y-66187380D01*
X135425476Y-66235000D01*
X135473095Y-66282619D01*
X135520714Y-66377857D01*
X135520714Y-66473095D01*
X135473095Y-66615952D01*
X134901666Y-67187380D01*
X135520714Y-67187380D01*
%TO.C,R1*%
X149833333Y-74452380D02*
X149500000Y-73976190D01*
X149261904Y-74452380D02*
X149261904Y-73452380D01*
X149642857Y-73452380D01*
X149738095Y-73500000D01*
X149785714Y-73547619D01*
X149833333Y-73642857D01*
X149833333Y-73785714D01*
X149785714Y-73880952D01*
X149738095Y-73928571D01*
X149642857Y-73976190D01*
X149261904Y-73976190D01*
X150785714Y-74452380D02*
X150214285Y-74452380D01*
X150500000Y-74452380D02*
X150500000Y-73452380D01*
X150404761Y-73595238D01*
X150309523Y-73690476D01*
X150214285Y-73738095D01*
%TO.C,L1*%
X121452380Y-69346182D02*
X121452380Y-69822373D01*
X120452380Y-69822373D01*
X121452380Y-68489039D02*
X121452380Y-69060468D01*
X121452380Y-68774754D02*
X120452380Y-68774754D01*
X120595238Y-68869992D01*
X120690476Y-68965230D01*
X120738095Y-69060468D01*
%TO.C,J4*%
X150957380Y-63283333D02*
X151671666Y-63283333D01*
X151814523Y-63330952D01*
X151909761Y-63426190D01*
X151957380Y-63569047D01*
X151957380Y-63664285D01*
X151290714Y-62378571D02*
X151957380Y-62378571D01*
X150909761Y-62616666D02*
X151624047Y-62854761D01*
X151624047Y-62235714D01*
%TO.C,J3*%
X152902380Y-75083333D02*
X153616666Y-75083333D01*
X153759523Y-75130952D01*
X153854761Y-75226190D01*
X153902380Y-75369047D01*
X153902380Y-75464285D01*
X152902380Y-74702380D02*
X152902380Y-74083333D01*
X153283333Y-74416666D01*
X153283333Y-74273809D01*
X153330952Y-74178571D01*
X153378571Y-74130952D01*
X153473809Y-74083333D01*
X153711904Y-74083333D01*
X153807142Y-74130952D01*
X153854761Y-74178571D01*
X153902380Y-74273809D01*
X153902380Y-74559523D01*
X153854761Y-74654761D01*
X153807142Y-74702380D01*
%TO.C,J2*%
X106402380Y-69533333D02*
X107116666Y-69533333D01*
X107259523Y-69580952D01*
X107354761Y-69676190D01*
X107402380Y-69819047D01*
X107402380Y-69914285D01*
X106497619Y-69104761D02*
X106450000Y-69057142D01*
X106402380Y-68961904D01*
X106402380Y-68723809D01*
X106450000Y-68628571D01*
X106497619Y-68580952D01*
X106592857Y-68533333D01*
X106688095Y-68533333D01*
X106830952Y-68580952D01*
X107402380Y-69152380D01*
X107402380Y-68533333D01*
%TO.C,J1*%
X137066666Y-54702380D02*
X137066666Y-55416666D01*
X137019047Y-55559523D01*
X136923809Y-55654761D01*
X136780952Y-55702380D01*
X136685714Y-55702380D01*
X138066666Y-55702380D02*
X137495238Y-55702380D01*
X137780952Y-55702380D02*
X137780952Y-54702380D01*
X137685714Y-54845238D01*
X137590476Y-54940476D01*
X137495238Y-54988095D01*
%TO.C,D2*%
X115261904Y-63452380D02*
X115261904Y-62452380D01*
X115500000Y-62452380D01*
X115642857Y-62500000D01*
X115738095Y-62595238D01*
X115785714Y-62690476D01*
X115833333Y-62880952D01*
X115833333Y-63023809D01*
X115785714Y-63214285D01*
X115738095Y-63309523D01*
X115642857Y-63404761D01*
X115500000Y-63452380D01*
X115261904Y-63452380D01*
X116214285Y-62547619D02*
X116261904Y-62500000D01*
X116357142Y-62452380D01*
X116595238Y-62452380D01*
X116690476Y-62500000D01*
X116738095Y-62547619D01*
X116785714Y-62642857D01*
X116785714Y-62738095D01*
X116738095Y-62880952D01*
X116166666Y-63452380D01*
X116785714Y-63452380D01*
%TO.C,D1*%
X146661904Y-77402380D02*
X146661904Y-76402380D01*
X146900000Y-76402380D01*
X147042857Y-76450000D01*
X147138095Y-76545238D01*
X147185714Y-76640476D01*
X147233333Y-76830952D01*
X147233333Y-76973809D01*
X147185714Y-77164285D01*
X147138095Y-77259523D01*
X147042857Y-77354761D01*
X146900000Y-77402380D01*
X146661904Y-77402380D01*
X148185714Y-77402380D02*
X147614285Y-77402380D01*
X147900000Y-77402380D02*
X147900000Y-76402380D01*
X147804761Y-76545238D01*
X147709523Y-76640476D01*
X147614285Y-76688095D01*
%TO.C,C10*%
X142357142Y-87042857D02*
X142404761Y-87090476D01*
X142452380Y-87233333D01*
X142452380Y-87328571D01*
X142404761Y-87471428D01*
X142309523Y-87566666D01*
X142214285Y-87614285D01*
X142023809Y-87661904D01*
X141880952Y-87661904D01*
X141690476Y-87614285D01*
X141595238Y-87566666D01*
X141500000Y-87471428D01*
X141452380Y-87328571D01*
X141452380Y-87233333D01*
X141500000Y-87090476D01*
X141547619Y-87042857D01*
X142452380Y-86090476D02*
X142452380Y-86661904D01*
X142452380Y-86376190D02*
X141452380Y-86376190D01*
X141595238Y-86471428D01*
X141690476Y-86566666D01*
X141738095Y-86661904D01*
X141452380Y-85471428D02*
X141452380Y-85376190D01*
X141500000Y-85280952D01*
X141547619Y-85233333D01*
X141642857Y-85185714D01*
X141833333Y-85138095D01*
X142071428Y-85138095D01*
X142261904Y-85185714D01*
X142357142Y-85233333D01*
X142404761Y-85280952D01*
X142452380Y-85376190D01*
X142452380Y-85471428D01*
X142404761Y-85566666D01*
X142357142Y-85614285D01*
X142261904Y-85661904D01*
X142071428Y-85709523D01*
X141833333Y-85709523D01*
X141642857Y-85661904D01*
X141547619Y-85614285D01*
X141500000Y-85566666D01*
X141452380Y-85471428D01*
%TO.C,C9*%
X135707142Y-86566666D02*
X135754761Y-86614285D01*
X135802380Y-86757142D01*
X135802380Y-86852380D01*
X135754761Y-86995238D01*
X135659523Y-87090476D01*
X135564285Y-87138095D01*
X135373809Y-87185714D01*
X135230952Y-87185714D01*
X135040476Y-87138095D01*
X134945238Y-87090476D01*
X134850000Y-86995238D01*
X134802380Y-86852380D01*
X134802380Y-86757142D01*
X134850000Y-86614285D01*
X134897619Y-86566666D01*
X135802380Y-86090476D02*
X135802380Y-85900000D01*
X135754761Y-85804761D01*
X135707142Y-85757142D01*
X135564285Y-85661904D01*
X135373809Y-85614285D01*
X134992857Y-85614285D01*
X134897619Y-85661904D01*
X134850000Y-85709523D01*
X134802380Y-85804761D01*
X134802380Y-85995238D01*
X134850000Y-86090476D01*
X134897619Y-86138095D01*
X134992857Y-86185714D01*
X135230952Y-86185714D01*
X135326190Y-86138095D01*
X135373809Y-86090476D01*
X135421428Y-85995238D01*
X135421428Y-85804761D01*
X135373809Y-85709523D01*
X135326190Y-85661904D01*
X135230952Y-85614285D01*
%TO.C,C8*%
X115833333Y-60357142D02*
X115785714Y-60404761D01*
X115642857Y-60452380D01*
X115547619Y-60452380D01*
X115404761Y-60404761D01*
X115309523Y-60309523D01*
X115261904Y-60214285D01*
X115214285Y-60023809D01*
X115214285Y-59880952D01*
X115261904Y-59690476D01*
X115309523Y-59595238D01*
X115404761Y-59500000D01*
X115547619Y-59452380D01*
X115642857Y-59452380D01*
X115785714Y-59500000D01*
X115833333Y-59547619D01*
X116404761Y-59880952D02*
X116309523Y-59833333D01*
X116261904Y-59785714D01*
X116214285Y-59690476D01*
X116214285Y-59642857D01*
X116261904Y-59547619D01*
X116309523Y-59500000D01*
X116404761Y-59452380D01*
X116595238Y-59452380D01*
X116690476Y-59500000D01*
X116738095Y-59547619D01*
X116785714Y-59642857D01*
X116785714Y-59690476D01*
X116738095Y-59785714D01*
X116690476Y-59833333D01*
X116595238Y-59880952D01*
X116404761Y-59880952D01*
X116309523Y-59928571D01*
X116261904Y-59976190D01*
X116214285Y-60071428D01*
X116214285Y-60261904D01*
X116261904Y-60357142D01*
X116309523Y-60404761D01*
X116404761Y-60452380D01*
X116595238Y-60452380D01*
X116690476Y-60404761D01*
X116738095Y-60357142D01*
X116785714Y-60261904D01*
X116785714Y-60071428D01*
X116738095Y-59976190D01*
X116690476Y-59928571D01*
X116595238Y-59880952D01*
%TO.C,C7*%
X125098333Y-56999642D02*
X125050714Y-57047261D01*
X124907857Y-57094880D01*
X124812619Y-57094880D01*
X124669761Y-57047261D01*
X124574523Y-56952023D01*
X124526904Y-56856785D01*
X124479285Y-56666309D01*
X124479285Y-56523452D01*
X124526904Y-56332976D01*
X124574523Y-56237738D01*
X124669761Y-56142500D01*
X124812619Y-56094880D01*
X124907857Y-56094880D01*
X125050714Y-56142500D01*
X125098333Y-56190119D01*
X125431666Y-56094880D02*
X126098333Y-56094880D01*
X125669761Y-57094880D01*
%TO.C,C6*%
X121287142Y-82316666D02*
X121334761Y-82364285D01*
X121382380Y-82507142D01*
X121382380Y-82602380D01*
X121334761Y-82745238D01*
X121239523Y-82840476D01*
X121144285Y-82888095D01*
X120953809Y-82935714D01*
X120810952Y-82935714D01*
X120620476Y-82888095D01*
X120525238Y-82840476D01*
X120430000Y-82745238D01*
X120382380Y-82602380D01*
X120382380Y-82507142D01*
X120430000Y-82364285D01*
X120477619Y-82316666D01*
X120382380Y-81459523D02*
X120382380Y-81650000D01*
X120430000Y-81745238D01*
X120477619Y-81792857D01*
X120620476Y-81888095D01*
X120810952Y-81935714D01*
X121191904Y-81935714D01*
X121287142Y-81888095D01*
X121334761Y-81840476D01*
X121382380Y-81745238D01*
X121382380Y-81554761D01*
X121334761Y-81459523D01*
X121287142Y-81411904D01*
X121191904Y-81364285D01*
X120953809Y-81364285D01*
X120858571Y-81411904D01*
X120810952Y-81459523D01*
X120763333Y-81554761D01*
X120763333Y-81745238D01*
X120810952Y-81840476D01*
X120858571Y-81888095D01*
X120953809Y-81935714D01*
%TO.C,C5*%
X124357142Y-82166666D02*
X124404761Y-82214285D01*
X124452380Y-82357142D01*
X124452380Y-82452380D01*
X124404761Y-82595238D01*
X124309523Y-82690476D01*
X124214285Y-82738095D01*
X124023809Y-82785714D01*
X123880952Y-82785714D01*
X123690476Y-82738095D01*
X123595238Y-82690476D01*
X123500000Y-82595238D01*
X123452380Y-82452380D01*
X123452380Y-82357142D01*
X123500000Y-82214285D01*
X123547619Y-82166666D01*
X123452380Y-81261904D02*
X123452380Y-81738095D01*
X123928571Y-81785714D01*
X123880952Y-81738095D01*
X123833333Y-81642857D01*
X123833333Y-81404761D01*
X123880952Y-81309523D01*
X123928571Y-81261904D01*
X124023809Y-81214285D01*
X124261904Y-81214285D01*
X124357142Y-81261904D01*
X124404761Y-81309523D01*
X124452380Y-81404761D01*
X124452380Y-81642857D01*
X124404761Y-81738095D01*
X124357142Y-81785714D01*
%TO.C,C4*%
X124357142Y-69166666D02*
X124404761Y-69214285D01*
X124452380Y-69357142D01*
X124452380Y-69452380D01*
X124404761Y-69595238D01*
X124309523Y-69690476D01*
X124214285Y-69738095D01*
X124023809Y-69785714D01*
X123880952Y-69785714D01*
X123690476Y-69738095D01*
X123595238Y-69690476D01*
X123500000Y-69595238D01*
X123452380Y-69452380D01*
X123452380Y-69357142D01*
X123500000Y-69214285D01*
X123547619Y-69166666D01*
X123785714Y-68309523D02*
X124452380Y-68309523D01*
X123404761Y-68547619D02*
X124119047Y-68785714D01*
X124119047Y-68166666D01*
%TO.C,C3*%
X129357142Y-68166666D02*
X129404761Y-68214285D01*
X129452380Y-68357142D01*
X129452380Y-68452380D01*
X129404761Y-68595238D01*
X129309523Y-68690476D01*
X129214285Y-68738095D01*
X129023809Y-68785714D01*
X128880952Y-68785714D01*
X128690476Y-68738095D01*
X128595238Y-68690476D01*
X128500000Y-68595238D01*
X128452380Y-68452380D01*
X128452380Y-68357142D01*
X128500000Y-68214285D01*
X128547619Y-68166666D01*
X128452380Y-67833333D02*
X128452380Y-67214285D01*
X128833333Y-67547619D01*
X128833333Y-67404761D01*
X128880952Y-67309523D01*
X128928571Y-67261904D01*
X129023809Y-67214285D01*
X129261904Y-67214285D01*
X129357142Y-67261904D01*
X129404761Y-67309523D01*
X129452380Y-67404761D01*
X129452380Y-67690476D01*
X129404761Y-67785714D01*
X129357142Y-67833333D01*
%TO.C,C2*%
X137857142Y-81766666D02*
X137904761Y-81814285D01*
X137952380Y-81957142D01*
X137952380Y-82052380D01*
X137904761Y-82195238D01*
X137809523Y-82290476D01*
X137714285Y-82338095D01*
X137523809Y-82385714D01*
X137380952Y-82385714D01*
X137190476Y-82338095D01*
X137095238Y-82290476D01*
X137000000Y-82195238D01*
X136952380Y-82052380D01*
X136952380Y-81957142D01*
X137000000Y-81814285D01*
X137047619Y-81766666D01*
X137047619Y-81385714D02*
X137000000Y-81338095D01*
X136952380Y-81242857D01*
X136952380Y-81004761D01*
X137000000Y-80909523D01*
X137047619Y-80861904D01*
X137142857Y-80814285D01*
X137238095Y-80814285D01*
X137380952Y-80861904D01*
X137952380Y-81433333D01*
X137952380Y-80814285D01*
%TO.C,C1*%
X145007142Y-81966666D02*
X145054761Y-82014285D01*
X145102380Y-82157142D01*
X145102380Y-82252380D01*
X145054761Y-82395238D01*
X144959523Y-82490476D01*
X144864285Y-82538095D01*
X144673809Y-82585714D01*
X144530952Y-82585714D01*
X144340476Y-82538095D01*
X144245238Y-82490476D01*
X144150000Y-82395238D01*
X144102380Y-82252380D01*
X144102380Y-82157142D01*
X144150000Y-82014285D01*
X144197619Y-81966666D01*
X145102380Y-81014285D02*
X145102380Y-81585714D01*
X145102380Y-81300000D02*
X144102380Y-81300000D01*
X144245238Y-81395238D01*
X144340476Y-81490476D01*
X144388095Y-81585714D01*
D11*
%TO.C,U3*%
X130500000Y-88760000D02*
X128550000Y-88760000D01*
X130500000Y-83640000D02*
X128550000Y-83640000D01*
X130500000Y-88760000D02*
X133950000Y-88760000D01*
X130500000Y-83640000D02*
X132450000Y-83640000D01*
%TO.C,U2*%
X120000000Y-53440000D02*
X120800000Y-53440000D01*
X120000000Y-56560000D02*
X121800000Y-56560000D01*
X120000000Y-56560000D02*
X119200000Y-56560000D01*
X120000000Y-53440000D02*
X119200000Y-53440000D01*
%TO.C,U1*%
X128390000Y-71390000D02*
X128390000Y-71690000D01*
X135310000Y-78610000D02*
X135610000Y-78610000D01*
X135610000Y-71390000D02*
X135610000Y-71690000D01*
X128390000Y-71690000D02*
X127075000Y-71690000D01*
X135310000Y-71390000D02*
X135610000Y-71390000D01*
X135610000Y-78610000D02*
X135610000Y-78310000D01*
X128390000Y-78610000D02*
X128390000Y-78310000D01*
X128690000Y-78610000D02*
X128390000Y-78610000D01*
X128690000Y-71390000D02*
X128390000Y-71390000D01*
%TO.C,R3*%
X124530000Y-62227064D02*
X124530000Y-61772936D01*
X126000000Y-62227064D02*
X126000000Y-61772936D01*
%TO.C,R2*%
X131507936Y-66000000D02*
X131962064Y-66000000D01*
X131507936Y-67470000D02*
X131962064Y-67470000D01*
%TO.C,R1*%
X145772936Y-73265000D02*
X146227064Y-73265000D01*
X145772936Y-74735000D02*
X146227064Y-74735000D01*
%TO.C,L1*%
X121560000Y-73410242D02*
X121560000Y-72589758D01*
X120440000Y-73410242D02*
X120440000Y-72589758D01*
%TO.C,J4*%
X141495000Y-61185000D02*
X141495000Y-64715000D01*
X141560000Y-61185000D02*
X141495000Y-61185000D01*
X150505000Y-61185000D02*
X150505000Y-64715000D01*
X150505000Y-64715000D02*
X150440000Y-64715000D01*
X150440000Y-59860000D02*
X150440000Y-61185000D01*
X141560000Y-64715000D02*
X141495000Y-64715000D01*
X150505000Y-61185000D02*
X150440000Y-61185000D01*
%TO.C,J3*%
X156800000Y-70950000D02*
X156800000Y-71700000D01*
X156800000Y-71700000D02*
X159750000Y-71700000D01*
X159750000Y-71700000D02*
X159750000Y-74750000D01*
X156800000Y-77800000D02*
X159750000Y-77800000D01*
X154550000Y-74250000D02*
X154550000Y-75250000D01*
X154550000Y-75250000D02*
X155300000Y-75250000D01*
X155300000Y-75250000D02*
X155300000Y-74250000D01*
X155300000Y-72750000D02*
X155300000Y-70950000D01*
X154550000Y-70950000D02*
X154550000Y-72750000D01*
X154250000Y-78850000D02*
X155500000Y-78850000D01*
X154540000Y-78560000D02*
X160510000Y-78560000D01*
X154550000Y-78550000D02*
X155300000Y-78550000D01*
X160510000Y-78560000D02*
X160510000Y-70940000D01*
X155300000Y-74250000D02*
X154550000Y-74250000D01*
X156800000Y-78550000D02*
X156800000Y-77800000D01*
X155300000Y-78550000D02*
X155300000Y-76750000D01*
X154250000Y-77600000D02*
X154250000Y-78850000D01*
X155300000Y-70950000D02*
X154550000Y-70950000D01*
X154550000Y-76750000D02*
X154550000Y-78550000D01*
X154540000Y-70940000D02*
X154540000Y-78560000D01*
X159750000Y-77800000D02*
X159750000Y-74750000D01*
X154550000Y-72750000D02*
X155300000Y-72750000D01*
X160510000Y-70940000D02*
X154540000Y-70940000D01*
X155300000Y-76750000D02*
X154550000Y-76750000D01*
%TO.C,J2*%
X106800000Y-70950000D02*
X106800000Y-71700000D01*
X106800000Y-71700000D02*
X109750000Y-71700000D01*
X109750000Y-71700000D02*
X109750000Y-74750000D01*
X106800000Y-77800000D02*
X109750000Y-77800000D01*
X104550000Y-74250000D02*
X104550000Y-75250000D01*
X104550000Y-75250000D02*
X105300000Y-75250000D01*
X105300000Y-75250000D02*
X105300000Y-74250000D01*
X105300000Y-72750000D02*
X105300000Y-70950000D01*
X104550000Y-70950000D02*
X104550000Y-72750000D01*
X104250000Y-78850000D02*
X105500000Y-78850000D01*
X104540000Y-78560000D02*
X110510000Y-78560000D01*
X104550000Y-78550000D02*
X105300000Y-78550000D01*
X110510000Y-78560000D02*
X110510000Y-70940000D01*
X105300000Y-74250000D02*
X104550000Y-74250000D01*
X106800000Y-78550000D02*
X106800000Y-77800000D01*
X105300000Y-78550000D02*
X105300000Y-76750000D01*
X104250000Y-77600000D02*
X104250000Y-78850000D01*
X105300000Y-70950000D02*
X104550000Y-70950000D01*
X104550000Y-76750000D02*
X104550000Y-78550000D01*
X104540000Y-70940000D02*
X104540000Y-78560000D01*
X109750000Y-77800000D02*
X109750000Y-74750000D01*
X104550000Y-72750000D02*
X105300000Y-72750000D01*
X110510000Y-70940000D02*
X104540000Y-70940000D01*
X105300000Y-76750000D02*
X104550000Y-76750000D01*
%TO.C,J1*%
X136050000Y-54800000D02*
X135300000Y-54800000D01*
X135300000Y-54800000D02*
X135300000Y-57750000D01*
X135300000Y-57750000D02*
X132250000Y-57750000D01*
X129200000Y-54800000D02*
X129200000Y-57750000D01*
X132750000Y-52550000D02*
X131750000Y-52550000D01*
X131750000Y-52550000D02*
X131750000Y-53300000D01*
X131750000Y-53300000D02*
X132750000Y-53300000D01*
X134250000Y-53300000D02*
X136050000Y-53300000D01*
X136050000Y-52550000D02*
X134250000Y-52550000D01*
X128150000Y-52250000D02*
X128150000Y-53500000D01*
X128440000Y-52540000D02*
X128440000Y-58510000D01*
X128450000Y-52550000D02*
X128450000Y-53300000D01*
X128440000Y-58510000D02*
X136060000Y-58510000D01*
X132750000Y-53300000D02*
X132750000Y-52550000D01*
X128450000Y-54800000D02*
X129200000Y-54800000D01*
X128450000Y-53300000D02*
X130250000Y-53300000D01*
X129400000Y-52250000D02*
X128150000Y-52250000D01*
X136050000Y-53300000D02*
X136050000Y-52550000D01*
X130250000Y-52550000D02*
X128450000Y-52550000D01*
X136060000Y-52540000D02*
X128440000Y-52540000D01*
X129200000Y-57750000D02*
X132250000Y-57750000D01*
X134250000Y-52550000D02*
X134250000Y-53300000D01*
X136060000Y-58510000D02*
X136060000Y-52540000D01*
X130250000Y-53300000D02*
X130250000Y-52550000D01*
%TO.C,D2*%
X119325000Y-63735000D02*
X121785000Y-63735000D01*
X121785000Y-62265000D02*
X119325000Y-62265000D01*
X121785000Y-63735000D02*
X121785000Y-62265000D01*
%TO.C,D1*%
X143200000Y-77735000D02*
X145660000Y-77735000D01*
X145660000Y-76265000D02*
X143200000Y-76265000D01*
X145660000Y-77735000D02*
X145660000Y-76265000D01*
%TO.C,C10*%
X140735000Y-85938748D02*
X140735000Y-86461252D01*
X139265000Y-85938748D02*
X139265000Y-86461252D01*
%TO.C,C9*%
X136470000Y-85938748D02*
X136470000Y-86461252D01*
X137940000Y-85938748D02*
X137940000Y-86461252D01*
%TO.C,C8*%
X119597496Y-59000000D02*
X120120000Y-59000000D01*
X119597496Y-60470000D02*
X120120000Y-60470000D01*
%TO.C,C7*%
X125526252Y-55697500D02*
X125003748Y-55697500D01*
X125526252Y-54227500D02*
X125003748Y-54227500D01*
%TO.C,C6*%
X120265000Y-77738748D02*
X120265000Y-78261252D01*
X121735000Y-77738748D02*
X121735000Y-78261252D01*
%TO.C,C5*%
X123265000Y-77738748D02*
X123265000Y-78261252D01*
X124735000Y-77738748D02*
X124735000Y-78261252D01*
%TO.C,C4*%
X123265000Y-73522504D02*
X123265000Y-73000000D01*
X124735000Y-73522504D02*
X124735000Y-73000000D01*
%TO.C,C3*%
X127735000Y-69261252D02*
X127735000Y-68738748D01*
X126265000Y-69261252D02*
X126265000Y-68738748D01*
%TO.C,C2*%
X138765000Y-80338748D02*
X138765000Y-80861252D01*
X140235000Y-80338748D02*
X140235000Y-80861252D01*
%TO.C,C1*%
X141765000Y-80338748D02*
X141765000Y-80861252D01*
X143235000Y-80338748D02*
X143235000Y-80861252D01*
%TD*%
M02*
